<svg width="16" height="15" viewBox="0 0 16 15" fill="none" xmlns="http://www.w3.org/2000/svg">
<path d="M15.2098 14.2072C13.9703 12.0643 11.9834 10.6011 9.68138 10.0737C10.7753 9.62549 11.6796 8.8114 12.2398 7.77047C12.8001 6.72955 12.9815 5.52638 12.7532 4.36652C12.5248 3.20667 11.9007 2.1621 10.9877 1.41129C10.0746 0.660471 8.92915 0.25 7.74702 0.25C6.56489 0.25 5.41944 0.660471 4.50637 1.41129C3.59329 2.1621 2.96926 3.20667 2.74087 4.36652C2.51249 5.52638 2.69392 6.72955 3.25419 7.77047C3.81445 8.8114 4.71878 9.62549 5.81266 10.0737C3.51363 10.5989 1.52374 12.0643 0.284191 14.2072C0.248309 14.2758 0.240317 14.3556 0.261885 14.43C0.283454 14.5043 0.332914 14.5675 0.399934 14.6062C0.466954 14.645 0.546351 14.6563 0.621539 14.6379C0.696728 14.6195 0.761893 14.5727 0.803422 14.5074C2.26958 11.9705 4.86723 10.4556 7.74702 10.4556C10.6268 10.4556 13.2245 11.9705 14.6906 14.5074C14.7169 14.553 14.7548 14.5908 14.8003 14.6172C14.8459 14.6435 14.8976 14.6574 14.9502 14.6575C15.003 14.6576 15.0548 14.6436 15.1003 14.6169C15.1691 14.5771 15.2193 14.5116 15.2398 14.4348C15.2604 14.3579 15.2496 14.2761 15.2098 14.2072ZM3.24501 5.3533C3.24501 4.46289 3.50905 3.59247 4.00374 2.85212C4.49842 2.11177 5.20154 1.53474 6.02417 1.19399C6.84681 0.853244 7.75201 0.764089 8.62532 0.9378C9.49862 1.11151 10.3008 1.54029 10.9304 2.1699C11.56 2.79952 11.9888 3.6017 12.1625 4.475C12.3362 5.34831 12.2471 6.25351 11.9063 7.07615C11.5656 7.89878 10.9886 8.6019 10.2482 9.09658C9.50785 9.59127 8.63743 9.85531 7.74702 9.85531C6.55344 9.85392 5.40914 9.37916 4.56515 8.53517C3.72116 7.69118 3.2464 6.54688 3.24501 5.3533Z" fill="white" stroke="white" stroke-width="0.5"/>
</svg>
