<svg width="16" height="16" viewBox="0 0 16 16" fill="none" xmlns="http://www.w3.org/2000/svg">
<path d="M8 15.5C12.1422 15.5 15.5 12.1422 15.5 8C15.5 3.85775 12.1422 0.5 8 0.5C3.85775 0.5 0.5 3.85775 0.5 8C0.5 9.2 0.782 10.334 1.28225 11.3397C1.41575 11.6067 1.46 11.912 1.38275 12.2007L0.9365 13.8702C0.892467 14.0354 0.892633 14.2093 0.93698 14.3743C0.981327 14.5394 1.0683 14.69 1.18917 14.8108C1.31004 14.9317 1.46056 15.0187 1.62565 15.063C1.79074 15.1074 1.96458 15.1075 2.12975 15.0635L3.79925 14.6172C4.08905 14.5443 4.39552 14.5798 4.661 14.717C5.69819 15.2335 6.84133 15.5015 8 15.5Z" stroke="#AEAEAE"/>
</svg>
