<svg width="10" height="15" viewBox="0 0 10 15" fill="none" xmlns="http://www.w3.org/2000/svg">
<path d="M0 4.33723C0 4.84469 -2.36976e-07 5.09842 0.122165 5.28131C0.174781 5.35994 0.242321 5.42748 0.320956 5.4801C0.503842 5.60226 0.75757 5.60226 1.26503 5.60226H4.33723C4.7686 5.60226 5.1823 5.77362 5.48732 6.07864C5.79234 6.38366 5.9637 6.79736 5.9637 7.22872C5.9637 7.66009 5.79234 8.07379 5.48732 8.37881C5.1823 8.68383 4.7686 8.85519 4.33723 8.85519H1.26503C0.75757 8.85519 0.503842 8.85519 0.320956 8.97663C0.242252 9.02946 0.174707 9.09725 0.122165 9.17614C-2.36976e-07 9.35903 0 9.61276 0 10.1202C0 12.1645 -2.15433e-07 13.1874 0.635405 13.822C1.27009 14.4574 2.29223 14.4574 4.33651 14.4574H5.05938C7.10511 14.4574 8.12653 14.4574 8.76194 13.822C9.39734 13.1874 9.39734 12.1645 9.39734 10.1202V4.33723C9.39734 2.29295 9.39734 1.27009 8.76194 0.635405C8.12653 -4.30866e-08 7.10439 0 5.06011 0H4.33723C2.29223 0 1.27009 -4.30866e-08 0.635405 0.635405C-2.15433e-07 1.27009 0 2.29295 0 4.33723Z" fill="#9B51E0"/>
</svg>
