<svg width="16" height="16" viewBox="0 0 16 16" fill="none" xmlns="http://www.w3.org/2000/svg">
<path d="M13.6717 4.25C13.712 4.02015 13.7015 3.78428 13.6409 3.55892C13.5804 3.33357 13.4712 3.12421 13.3211 2.94554C13.171 2.76686 12.9836 2.6232 12.7721 2.52464C12.5606 2.42607 12.3301 2.375 12.0967 2.375H3.90375C3.6704 2.375 3.43988 2.42607 3.22836 2.52464C3.01685 2.6232 2.82947 2.76686 2.67938 2.94554C2.5293 3.12421 2.42013 3.33357 2.35956 3.55892C2.29899 3.78428 2.28847 4.02015 2.32875 4.25M12.1252 2.375C12.1462 2.18 12.1575 2.08325 12.1575 2.003C12.1583 1.63227 12.0218 1.27437 11.7743 0.998348C11.5268 0.722325 11.1859 0.547732 10.8172 0.50825C10.7377 0.5 10.6402 0.5 10.4452 0.5H5.55525C5.36025 0.5 5.262 0.5 5.1825 0.50825C4.81387 0.547732 4.47293 0.722325 4.22544 0.998348C3.97794 1.27437 3.84144 1.63227 3.84225 2.003C3.84225 2.08325 3.85275 2.18075 3.8745 2.375M0.788247 9.34475C0.452997 6.97175 0.285747 5.786 0.996747 5.01725C1.70775 4.25 2.97375 4.25 5.50425 4.25H10.4962C13.0267 4.25 14.2927 4.25 15.0037 5.018C15.714 5.786 15.5467 6.97175 15.2122 9.34475L14.8957 11.5947C14.6332 13.4547 14.502 14.3855 13.8292 14.9427C13.1565 15.5 12.1642 15.5 10.179 15.5H5.8215C3.837 15.5 2.844 15.5 2.17125 14.9427C1.4985 14.3855 1.36725 13.4555 1.10475 11.5947L0.788247 9.34475Z" stroke="#AEAEAE"/>
<path d="M11.375 8.75C11.9963 8.75 12.5 8.24632 12.5 7.625C12.5 7.00368 11.9963 6.5 11.375 6.5C10.7537 6.5 10.25 7.00368 10.25 7.625C10.25 8.24632 10.7537 8.75 11.375 8.75Z" stroke="#AEAEAE"/>
<path d="M14.0004 14L11.8374 12.3882C11.1399 11.8692 10.1004 11.8175 9.33237 12.2637L9.13287 12.38C8.59887 12.6905 7.87287 12.6387 7.41237 12.257L4.53312 9.87422C3.95862 9.39872 3.03687 9.37322 2.42562 9.81572L1.43262 10.5357" stroke="#AEAEAE" stroke-linecap="round"/>
</svg>
