<svg width="32" height="32" viewBox="0 0 32 32" fill="none" xmlns="http://www.w3.org/2000/svg">
<path d="M8 24V8" stroke="white" stroke-width="1.5" stroke-linecap="round" stroke-linejoin="round"/>
<path d="M24 8V24" stroke="white" stroke-width="1.5" stroke-linecap="round" stroke-linejoin="round"/>
<path d="M12.2666 8H19.7333V14.4H12.2666V8Z" stroke="white" stroke-width="1.5" stroke-linecap="round" stroke-linejoin="round"/>
<path d="M12.2666 17.6H19.7333V24H12.2666V17.6Z" stroke="white" stroke-width="1.5" stroke-linecap="round" stroke-linejoin="round"/>
<path d="M10.3995 9.60001C10.3995 9.65275 10.3839 9.70431 10.3546 9.74816C10.3253 9.79202 10.2837 9.82619 10.2349 9.84638C10.1862 9.86656 10.1326 9.87184 10.0809 9.86155C10.0291 9.85126 9.98161 9.82587 9.94432 9.78857C9.90702 9.75128 9.88162 9.70376 9.87133 9.65203C9.86105 9.60031 9.86633 9.54669 9.88651 9.49796C9.90669 9.44923 9.94087 9.40759 9.98473 9.37828C10.0286 9.34898 10.0801 9.33334 10.1329 9.33334C10.2036 9.33334 10.2714 9.36144 10.3214 9.41145C10.3714 9.46146 10.3995 9.52929 10.3995 9.60001Z" stroke="white" stroke-width="1.5" stroke-linecap="round" stroke-linejoin="round"/>
<path d="M10.3995 13.8667C10.3995 13.9194 10.3839 13.971 10.3546 14.0148C10.3253 14.0587 10.2837 14.0929 10.2349 14.113C10.1862 14.1332 10.1326 14.1385 10.0809 14.1282C10.0291 14.1179 9.98161 14.0925 9.94432 14.0552C9.90702 14.0179 9.88162 13.9704 9.87133 13.9187C9.86105 13.867 9.86633 13.8134 9.88651 13.7646C9.90669 13.7159 9.94087 13.6742 9.98473 13.6449C10.0286 13.6156 10.0801 13.6 10.1329 13.6C10.2036 13.6 10.2714 13.6281 10.3214 13.6781C10.3714 13.7281 10.3995 13.7959 10.3995 13.8667Z" stroke="white" stroke-width="1.5" stroke-linecap="round" stroke-linejoin="round"/>
<path d="M10.3995 18.1333C10.3995 18.1861 10.3839 18.2376 10.3546 18.2815C10.3253 18.3253 10.2837 18.3595 10.2349 18.3797C10.1862 18.3999 10.1326 18.4052 10.0809 18.3949C10.0291 18.3846 9.98161 18.3592 9.94432 18.3219C9.90702 18.2846 9.88162 18.2371 9.87133 18.1854C9.86105 18.1336 9.86633 18.08 9.88651 18.0313C9.90669 17.9826 9.94087 17.9409 9.98473 17.9116C10.0286 17.8823 10.0801 17.8667 10.1329 17.8667C10.2036 17.8667 10.2714 17.8948 10.3214 17.9448C10.3714 17.9948 10.3995 18.0626 10.3995 18.1333Z" stroke="white" stroke-width="1.5" stroke-linecap="round" stroke-linejoin="round"/>
<path d="M10.3995 22.4C10.3995 22.4527 10.3839 22.5043 10.3546 22.5482C10.3253 22.592 10.2837 22.6262 10.2349 22.6464C10.1862 22.6665 10.1326 22.6718 10.0809 22.6615C10.0291 22.6513 9.98161 22.6259 9.94432 22.5886C9.90702 22.5513 9.88162 22.5037 9.87133 22.452C9.86105 22.4003 9.86633 22.3467 9.88651 22.2979C9.90669 22.2492 9.94087 22.2076 9.98473 22.1783C10.0286 22.149 10.0801 22.1333 10.1329 22.1333C10.2036 22.1333 10.2714 22.1614 10.3214 22.2114C10.3714 22.2614 10.3995 22.3293 10.3995 22.4Z" stroke="white" stroke-width="1.5" stroke-linecap="round" stroke-linejoin="round"/>
<path d="M22.1329 9.60001C22.1329 9.65275 22.1173 9.70431 22.088 9.74816C22.0587 9.79202 22.0171 9.82619 21.9683 9.84638C21.9196 9.86656 21.866 9.87184 21.8143 9.86155C21.7625 9.85126 21.715 9.82587 21.6777 9.78857C21.6404 9.75128 21.615 9.70376 21.6047 9.65203C21.5944 9.60031 21.5997 9.54669 21.6199 9.49796C21.6401 9.44923 21.6743 9.40759 21.7181 9.37828C21.762 9.34898 21.8135 9.33334 21.8663 9.33334C21.937 9.33334 22.0048 9.36144 22.0548 9.41145C22.1048 9.46146 22.1329 9.52929 22.1329 9.60001Z" stroke="white" stroke-width="1.5" stroke-linecap="round" stroke-linejoin="round"/>
<path d="M22.1329 13.8667C22.1329 13.9194 22.1173 13.971 22.088 14.0148C22.0587 14.0587 22.0171 14.0929 21.9683 14.113C21.9196 14.1332 21.866 14.1385 21.8143 14.1282C21.7625 14.1179 21.715 14.0925 21.6777 14.0552C21.6404 14.0179 21.615 13.9704 21.6047 13.9187C21.5944 13.867 21.5997 13.8134 21.6199 13.7646C21.6401 13.7159 21.6743 13.6742 21.7181 13.6449C21.762 13.6156 21.8135 13.6 21.8663 13.6C21.937 13.6 22.0048 13.6281 22.0548 13.6781C22.1048 13.7281 22.1329 13.7959 22.1329 13.8667Z" stroke="white" stroke-width="1.5" stroke-linecap="round" stroke-linejoin="round"/>
<path d="M22.1329 18.1333C22.1329 18.1861 22.1173 18.2376 22.088 18.2815C22.0587 18.3253 22.0171 18.3595 21.9683 18.3797C21.9196 18.3999 21.866 18.4052 21.8143 18.3949C21.7625 18.3846 21.715 18.3592 21.6777 18.3219C21.6404 18.2846 21.615 18.2371 21.6047 18.1854C21.5944 18.1336 21.5997 18.08 21.6199 18.0313C21.6401 17.9826 21.6743 17.9409 21.7181 17.9116C21.762 17.8823 21.8135 17.8667 21.8663 17.8667C21.937 17.8667 22.0048 17.8948 22.0548 17.9448C22.1048 17.9948 22.1329 18.0626 22.1329 18.1333Z" stroke="white" stroke-width="1.5" stroke-linecap="round" stroke-linejoin="round"/>
<path d="M22.1329 22.4C22.1329 22.4527 22.1173 22.5043 22.088 22.5482C22.0587 22.592 22.0171 22.6262 21.9683 22.6464C21.9196 22.6665 21.866 22.6718 21.8143 22.6615C21.7625 22.6513 21.715 22.6259 21.6777 22.5886C21.6404 22.5513 21.615 22.5037 21.6047 22.452C21.5944 22.4003 21.5997 22.3467 21.6199 22.2979C21.6401 22.2492 21.6743 22.2076 21.7181 22.1783C21.762 22.149 21.8135 22.1333 21.8663 22.1333C21.937 22.1333 22.0048 22.1614 22.0548 22.2114C22.1048 22.2614 22.1329 22.3293 22.1329 22.4Z" stroke="white" stroke-width="1.5" stroke-linecap="round" stroke-linejoin="round"/>
</svg>
