<svg width="20" height="20" viewBox="0 0 20 20" fill="none" xmlns="http://www.w3.org/2000/svg">
<path d="M1.6001 17.6V1.60001" stroke="white" stroke-width="1.5" stroke-linecap="round" stroke-linejoin="round"/>
<path d="M17.6001 1.60001V17.6" stroke="white" stroke-width="1.5" stroke-linecap="round" stroke-linejoin="round"/>
<path d="M5.8667 1.60001H13.3334V8.00001H5.8667V1.60001Z" stroke="white" stroke-width="1.5" stroke-linecap="round" stroke-linejoin="round"/>
<path d="M5.8667 11.2H13.3334V17.6H5.8667V11.2Z" stroke="white" stroke-width="1.5" stroke-linecap="round" stroke-linejoin="round"/>
<path d="M4.00013 3.20002C4.00013 3.25276 3.98449 3.30432 3.95519 3.34817C3.92589 3.39202 3.88424 3.4262 3.83551 3.44638C3.78679 3.46657 3.73317 3.47185 3.68144 3.46156C3.62971 3.45127 3.5822 3.42587 3.5449 3.38858C3.50761 3.35128 3.48221 3.30377 3.47192 3.25204C3.46163 3.20031 3.46691 3.14669 3.4871 3.09797C3.50728 3.04924 3.54146 3.00759 3.58531 2.97829C3.62916 2.94899 3.68072 2.93335 3.73346 2.93335C3.80419 2.93335 3.87202 2.96144 3.92203 3.01145C3.97203 3.06146 4.00013 3.12929 4.00013 3.20002Z" stroke="white" stroke-width="1.5" stroke-linecap="round" stroke-linejoin="round"/>
<path d="M4.00013 7.46668C4.00013 7.51942 3.98449 7.57098 3.95519 7.61483C3.92589 7.65868 3.88424 7.69286 3.83551 7.71305C3.78679 7.73323 3.73317 7.73851 3.68144 7.72822C3.62971 7.71793 3.5822 7.69254 3.5449 7.65524C3.50761 7.61795 3.48221 7.57043 3.47192 7.5187C3.46163 7.46698 3.46691 7.41336 3.4871 7.36463C3.50728 7.3159 3.54146 7.27426 3.58531 7.24495C3.62916 7.21565 3.68072 7.20001 3.73346 7.20001C3.80419 7.20001 3.87202 7.22811 3.92203 7.27812C3.97203 7.32813 4.00013 7.39595 4.00013 7.46668Z" stroke="white" stroke-width="1.5" stroke-linecap="round" stroke-linejoin="round"/>
<path d="M4.00013 11.7333C4.00013 11.7861 3.98449 11.8376 3.95519 11.8815C3.92589 11.9253 3.88424 11.9595 3.83551 11.9797C3.78679 11.9999 3.73317 12.0052 3.68144 11.9949C3.62971 11.9846 3.5822 11.9592 3.5449 11.9219C3.50761 11.8846 3.48221 11.8371 3.47192 11.7854C3.46163 11.7336 3.46691 11.68 3.4871 11.6313C3.50728 11.5826 3.54146 11.5409 3.58531 11.5116C3.62916 11.4823 3.68072 11.4667 3.73346 11.4667C3.80419 11.4667 3.87202 11.4948 3.92203 11.5448C3.97203 11.5948 4.00013 11.6626 4.00013 11.7333Z" stroke="white" stroke-width="1.5" stroke-linecap="round" stroke-linejoin="round"/>
<path d="M4.00013 16C4.00013 16.0527 3.98449 16.1043 3.95519 16.1482C3.92589 16.192 3.88424 16.2262 3.83551 16.2464C3.78679 16.2666 3.73317 16.2718 3.68144 16.2615C3.62971 16.2513 3.5822 16.2259 3.5449 16.1886C3.50761 16.1513 3.48221 16.1038 3.47192 16.052C3.46163 16.0003 3.46691 15.9467 3.4871 15.898C3.50728 15.8492 3.54146 15.8076 3.58531 15.7783C3.62916 15.749 3.68072 15.7333 3.73346 15.7333C3.80419 15.7333 3.87202 15.7614 3.92203 15.8114C3.97203 15.8615 4.00013 15.9293 4.00013 16Z" stroke="white" stroke-width="1.5" stroke-linecap="round" stroke-linejoin="round"/>
<path d="M15.7335 3.20002C15.7335 3.25276 15.7179 3.30432 15.6886 3.34817C15.6593 3.39202 15.6176 3.4262 15.5689 3.44638C15.5202 3.46657 15.4666 3.47185 15.4148 3.46156C15.3631 3.45127 15.3156 3.42587 15.2783 3.38858C15.241 3.35128 15.2156 3.30377 15.2053 3.25204C15.195 3.20031 15.2003 3.14669 15.2205 3.09797C15.2407 3.04924 15.2749 3.00759 15.3187 2.97829C15.3626 2.94899 15.4141 2.93335 15.4669 2.93335C15.5376 2.93335 15.6054 2.96144 15.6554 3.01145C15.7054 3.06146 15.7335 3.12929 15.7335 3.20002Z" stroke="white" stroke-width="1.5" stroke-linecap="round" stroke-linejoin="round"/>
<path d="M15.7335 7.46668C15.7335 7.51942 15.7179 7.57098 15.6886 7.61483C15.6593 7.65868 15.6176 7.69286 15.5689 7.71305C15.5202 7.73323 15.4666 7.73851 15.4148 7.72822C15.3631 7.71793 15.3156 7.69254 15.2783 7.65524C15.241 7.61795 15.2156 7.57043 15.2053 7.5187C15.195 7.46698 15.2003 7.41336 15.2205 7.36463C15.2407 7.3159 15.2749 7.27426 15.3187 7.24495C15.3626 7.21565 15.4141 7.20001 15.4669 7.20001C15.5376 7.20001 15.6054 7.22811 15.6554 7.27812C15.7054 7.32813 15.7335 7.39595 15.7335 7.46668Z" stroke="white" stroke-width="1.5" stroke-linecap="round" stroke-linejoin="round"/>
<path d="M15.7335 11.7333C15.7335 11.7861 15.7179 11.8376 15.6886 11.8815C15.6593 11.9253 15.6176 11.9595 15.5689 11.9797C15.5202 11.9999 15.4666 12.0052 15.4148 11.9949C15.3631 11.9846 15.3156 11.9592 15.2783 11.9219C15.241 11.8846 15.2156 11.8371 15.2053 11.7854C15.195 11.7336 15.2003 11.68 15.2205 11.6313C15.2407 11.5826 15.2749 11.5409 15.3187 11.5116C15.3626 11.4823 15.4141 11.4667 15.4669 11.4667C15.5376 11.4667 15.6054 11.4948 15.6554 11.5448C15.7054 11.5948 15.7335 11.6626 15.7335 11.7333Z" stroke="white" stroke-width="1.5" stroke-linecap="round" stroke-linejoin="round"/>
<path d="M15.7335 16C15.7335 16.0527 15.7179 16.1043 15.6886 16.1482C15.6593 16.192 15.6176 16.2262 15.5689 16.2464C15.5202 16.2666 15.4666 16.2718 15.4148 16.2615C15.3631 16.2513 15.3156 16.2259 15.2783 16.1886C15.241 16.1513 15.2156 16.1038 15.2053 16.052C15.195 16.0003 15.2003 15.9467 15.2205 15.898C15.2407 15.8492 15.2749 15.8076 15.3187 15.7783C15.3626 15.749 15.4141 15.7333 15.4669 15.7333C15.5376 15.7333 15.6054 15.7614 15.6554 15.8114C15.7054 15.8615 15.7335 15.9293 15.7335 16Z" stroke="white" stroke-width="1.5" stroke-linecap="round" stroke-linejoin="round"/>
</svg>
