<svg width="20" height="20" viewBox="0 0 20 20" fill="none" xmlns="http://www.w3.org/2000/svg">
<path d="M1.98438 3.2H17.2151V14.3692H1.98438V3.2Z" stroke="white" stroke-width="1.5" stroke-linecap="round" stroke-linejoin="round"/>
<path d="M12.1387 3.2V14.3692" stroke="white" stroke-width="1.5" stroke-linecap="round" stroke-linejoin="round"/>
<path d="M14.1689 9.2923H15.1843" stroke="white" stroke-width="1.5" stroke-linecap="round" stroke-linejoin="round"/>
<path d="M14.1689 11.3231H15.1843" stroke="white" stroke-width="1.5" stroke-linecap="round" stroke-linejoin="round"/>
<path d="M14.6767 6.5C14.7269 6.5 14.776 6.51489 14.8177 6.54278C14.8595 6.57067 14.892 6.61032 14.9112 6.6567C14.9304 6.70309 14.9355 6.75413 14.9257 6.80337C14.9159 6.85261 14.8917 6.89784 14.8562 6.93334C14.8207 6.96884 14.7755 6.99302 14.7262 7.00281C14.677 7.01261 14.6259 7.00758 14.5796 6.98837C14.5332 6.96916 14.4935 6.93662 14.4656 6.89488C14.4377 6.85313 14.4229 6.80405 14.4229 6.75385C14.4229 6.68652 14.4496 6.62196 14.4972 6.57435C14.5448 6.52674 14.6094 6.5 14.6767 6.5" stroke="white" stroke-width="1.5" stroke-linecap="round" stroke-linejoin="round"/>
<path d="M3 16.4L5.03077 14.3692" stroke="white" stroke-width="1.5" stroke-linecap="round" stroke-linejoin="round"/>
<path d="M16.1997 16.4L14.1689 14.3692" stroke="white" stroke-width="1.5" stroke-linecap="round" stroke-linejoin="round"/>
</svg>
